<svg version="1.0" xmlns="http://www.w3.org/2000/svg" width="512.000000pt" height="512.000000pt" viewBox="0 0 512.000000 512.000000" preserveAspectRatio="xMidYMid meet"><g transform="translate(0.000000,512.000000) scale(0.100000,-0.100000)" fill="#000000" stroke="none"><path d="M0 2560 l0 -2560 2560 0 2560 0 0 2560 0 2560 -2560 0 -2560 0 0 -2560z m2781 2340 c296 -30 563 -107 821 -236 991 -497 1501 -1606 1232 -2679 -207 -828 -871 -1492 -1699 -1699 -605 -151 -1239 -59 -1770 257 -854 508 -1296 1479 -1114 2449 72 387 248 762 497 1058 365 435 841 718 1381 820 203 38 453 50 652 30z"/><path d="M2375 4624 c-493 -50 -936 -258 -1278 -601 -310 -310 -510 -700 -584 -1139 -25 -153 -25 -495 0 -648 74 -439 269 -820 580 -1134 311 -314 700 -514 1143 -589 153 -25 495 -25 648 0 437 74 817 267 1129 575 316 311 519 704 594 1148 25 151 25 506 -1 649 -79 446 -258 801 -561 1114 -312 322 -683 519 -1135 602 -102 19 -435 33 -535 23z m-355 -644 c0 -70 7 -74 79 -45 239 98 574 111 821 32 58 -18 74 -27 72 -40 -3 -18 23 -24 33 -8 3 6 27 1 55 -11 42 -17 48 -23 40 -38 -10 -19 -5 -26 42 -50 16 -7 58 -44 94 -82 65 -67 66 -69 50 -93 -24 -37 -20 -50 9 -31 23 15 25 15 34 -2 5 -9 12 -34 16 -55 7 -34 4 -42 -23 -70 -17 -18 -40 -50 -52 -72 l-22 -40 23 20 c13 11 36 30 51 44 l28 24 -9 -29 c-23 -82 -115 -196 -194 -242 -20 -12 -40 -39 -63 -91 -45 -97 -118 -181 -189 -215 -68 -34 -136 -100 -166 -163 -12 -27 -36 -60 -53 -76 -37 -33 -131 -83 -204 -108 -48 -17 -51 -17 -43 -1 5 9 35 42 66 72 31 30 66 68 77 83 l21 29 -29 -15 c-16 -9 -61 -45 -100 -81 l-72 -66 -6 48 c-29 207 -247 353 -442 297 -115 -33 -190 -99 -239 -209 -13 -30 -35 -62 -49 -71 -22 -15 -27 -15 -53 -1 -57 31 -57 30 -19 75 40 48 40 47 26 56 -5 3 -27 -11 -49 -30 -44 -40 -63 -40 -100 -1 l-22 23 36 43 c54 64 24 79 -34 16 -29 -30 -38 -32 -63 -9 -26 23 -23 70 7 105 14 16 25 34 25 39 0 13 -24 11 -38 -3 -31 -31 1 203 45 325 87 243 265 457 488 587 66 39 72 50 74 150 2 67 21 49 21 -20z m1664 -804 c-4 -44 -9 -74 -10 -66 -2 8 -5 35 -9 60 -8 62 -15 70 -76 84 l-54 12 53 7 c36 5 56 14 65 28 11 19 13 18 25 -12 10 -23 11 -54 6 -113z m-1850 -1655 c4 -6 24 -11 44 -12 l37 -1 -45 -11 c-40 -11 -46 -16 -51 -47 l-6 -35 -2 31 c-1 34 -14 49 -46 57 -18 4 -18 5 2 6 28 1 43 28 44 83 l1 43 8 -51 c4 -29 11 -57 14 -63z"/><path d="M2969 3083 c-13 -15 -12 -15 9 -4 23 12 28 21 13 21 -5 0 -15 -7 -22 -17z"/></g></svg>
