<svg xmlns="http://www.w3.org/2000/svg" viewBox="10.41 0 27.17 48.01"><linearGradient id="ans-a" x1="-5167.1" x2="-4570.1" y1="697.55" y2="1395.6" gradientTransform="rotate(-65.001 -2052.931 -4777.847)" gradientUnits="userSpaceOnUse"><stop offset="0" stop-color="#F69923"/><stop offset=".312" stop-color="#F79A23"/><stop offset=".838" stop-color="#E97826"/></linearGradient><linearGradient id="ans-b" x1="-9585.3" x2="-5326.2" y1="620.5" y2="620.5" gradientTransform="rotate(-65.001 -2052.931 -4777.847)" gradientUnits="userSpaceOnUse"><stop offset=".323" stop-color="#9E2064"/><stop offset=".63" stop-color="#C92037"/><stop offset=".751" stop-color="#CD2335"/><stop offset="1" stop-color="#E97826"/></linearGradient><linearGradient id="ans-c" x1="-9071.2" x2="-6533.2" y1="1047.7" y2="1047.7" gradientTransform="rotate(-65.001 -2052.931 -4777.847)" gradientUnits="userSpaceOnUse"><stop offset="0" stop-color="#282662"/><stop offset=".095" stop-color="#662E8D"/><stop offset=".788" stop-color="#9F2064"/><stop offset=".949" stop-color="#CD2032"/></linearGradient><path fill="url(#ans-a)" d="M1798.9 20.1C1732.6 59.2 1622.5 170 1491 330.5l120.8 228c84.8-121.3 170.9-230.4 257.8-323.6 6.7-7.4 10.2-10.9 10.2-10.9-3.4 3.6-6.8 7.3-10.2 10.9-28.1 31-113.4 130.5-242.1 328.1 123.9-6.2 314.3-31.5 469.6-58.1 46.2-258.8-45.3-377.3-45.3-377.3S1935.5-60.6 1798.9 20.1" transform="translate(10.415)scale(.01136)"/><path fill="url(#ans-b)" d="M1255.7 1147.6c36.7-68.6 73.9-135.7 111.5-201 39-67.8 78.5-133.6 118.4-197 2.3-3.7 4.7-7.5 7-11.3 39.4-62.4 79.2-122.4 119.3-179.8l-120.8-228c-9.1 11.1-18.2 22.4-27.5 33.9-34.8 43.4-71 90.1-108.1 139.6-41.8 55.8-84.8 115.4-128.5 177.9-40.3 57.8-81.2 118.3-122.1 180.9-34.8 53.3-69.8 108.2-104.5 164.5l-3.9 6.3 157.2 310.5c33.6-66.5 67.6-132.1 102-196.5" transform="translate(10.415)scale(.01136)"/><path fill="url(#ans-c)" d="M539.7 2897.1c-20.8 57.2-41.7 115.4-62.7 174.9-.3.9-.6 1.7-.9 2.6-3 8.4-5.9 16.8-8.9 25.2-14.1 40.1-26.4 76.2-54.5 158.3 46.3 21.1 83.5 76.7 118.7 139.8-3.7-65.3-30.8-126.7-82.1-174.2 228.3 10.3 425-47.4 526.7-214.3 9.1-14.9 17.4-30.5 24.9-47.2-46.2 58.6-103.5 83.5-211.4 77.4-.2.1-.5.2-.7.3.2-.1.5-.2.7-.3 158.8-71.1 238.5-139.3 308.9-252.4 16.7-26.8 32.9-56.1 49.5-88.6-138.9 142.6-299.8 183.2-469.3 152.4l-127.1 13.9c-4 10.7-7.9 21.4-11.8 32.2" transform="translate(10.415)scale(.01136)"/><path fill="#6d6e71" d="M35.613 4.395v.133h.311v.88h.144v-.88h.314v-.133zm1.798 0-.348.707-.35-.707h-.173v1.012h.132v-.803l.345.696h.091l.345-.696v.803h.132V4.395z"/></svg>