<svg xmlns="http://www.w3.org/2000/svg" xmlns:xlink="http://www.w3.org/1999/xlink" width="128" height="128" version="1.0"><defs><linearGradient id="gt-b"><stop offset="0" style="stop-color:#2d2839"/><stop offset="1" style="stop-color:#282433"/></linearGradient><linearGradient id="gt-e" x1="48" x2="464" y1="44" y2="44" gradientUnits="userSpaceOnUse"><stop offset="0" style="stop-color:#77767b"/><stop offset=".05" style="stop-color:#c0bfbc"/><stop offset=".1" style="stop-color:#9a9996"/><stop offset=".9" style="stop-color:#9a9996"/><stop offset=".95" style="stop-color:#c0bfbc"/><stop offset="1" style="stop-color:#77767b"/></linearGradient><linearGradient xlink:href="#gt-b" id="gt-g" x1="70.347" x2="70.347" y1="245.395" y2="269.137" gradientUnits="userSpaceOnUse"/></defs><g transform="translate(0 -172)"><rect width="416" height="376" x="48" y="-124" rx="32" ry="32" style="fill:url(#gt-e)" transform="matrix(.25 0 0 .25 0 225)"/><rect width="416" height="384" x="48" y="-164" rx="32" ry="32" style="fill:#deddda" transform="matrix(.25 0 0 .25 0 225)"/><rect width="96" height="88" x="16" y="-276" rx="4" ry="4" style="fill:#241f31" transform="scale(1 -1)"/><g style="fill:#fff"><path d="M44.012 210.888 30 203.272V208l9.71 4.63v.142L30 218v4.728l14.012-8.214zM48 226v4h16v-4z" transform="translate(-2 -2)"/></g><path d="M100 244h4v4h-4zm-8 0h4v4h-4zm-8 0h4v4h-4zm-8 0h4v4h-4zm-8 0h4v4h-4zm-8 0h4v4h-4zm-8 0h4v4h-4zm-8 0h4v4h-4zm-8 0h4v4h-4zm-8 0h4v4h-4zm-8 0h4v4h-4z" style="fill:url(#gt-g)"/></g></svg>