<svg xmlns="http://www.w3.org/2000/svg" viewBox="25 23.39 180 203.23">
  <path
    fill="#cd1e25"
    d="m 187.24133,23.386327 c -14.98294,0.01847 -31.16732,4.917913 -41.74251,9.8272 l 0,-0.03081 c -17.70535,8.087262 -29.24956,16.441925 -37.86091,25.630825 -8.274459,8.82635 -13.79935,18.347312 -19.6236,28.9271 l -32.007722,0 c -0.927639,0 -1.76557,0.528637 -2.187247,1.355475 l -4.189654,8.194475 c -0.389391,0.763987 -0.354765,1.672163 0.09242,2.402888 0.447184,0.73072 1.268849,1.17064 2.125634,1.17064 l 30.313378,0 -56.930003,121.03787 c -0.434171,0.92135 -0.243567,2.03654 0.462094,2.77256 l 1.139832,1.17064 c 0.558802,0.58297 1.358434,0.86405 2.15644,0.73935 l 23.227934,-3.60434 c 0.772991,-0.11988 1.456644,-0.60023 1.81757,-1.29386 l 62.814004,-120.82222 39.95574,0 c 0.89584,0 1.71899,-0.48182 2.15644,-1.263065 l 4.55933,-8.194463 c 0.42512,-0.761537 0.41033,-1.682025 -0.0308,-2.4337 -0.44115,-0.752912 -1.2532,-1.23225 -2.12564,-1.23225 l -37.89172,0 11.58316,-23.844062 0.0308,-0.0308 c 2.64355,-5.680688 5.57101,-11.577 10.41252,-15.988463 2.42384,-2.211887 5.31224,-4.079988 8.99544,-5.421913 3.68196,-1.340687 8.17722,-2.155199 13.73959,-2.156437 3.99619,-0.0038 7.9776,0.940212 11.95284,1.9408 3.97524,0.988263 7.91475,2.054163 11.98364,2.064025 2.12317,0.0025 4.06766,-0.5422 5.69916,-1.386287 2.45711,-1.27415 4.25866,-3.180438 5.48352,-5.083038 0.61243,-0.956225 1.08562,-1.906287 1.41709,-2.834175 0.32901,-0.93405 0.51754,-1.834825 0.5237,-2.772562 0.002,-0.941438 -0.20331,-1.859475 -0.58531,-2.68015 -0.67527,-1.445425 -1.82004,-2.48545 -3.08062,-3.265463 -1.90753,-1.169412 -4.18351,-1.838525 -6.65417,-2.279662 -2.47066,-0.433763 -5.12,-0.6149 -7.73237,-0.616125 z"
  />
</svg>
